<svg width="79" height="79" viewBox="0 0 79 79" fill="none" xmlns="http://www.w3.org/2000/svg">
<path d="M17.2187 55H23.0312V54.0312C23.0312 49.4458 24.6297 45.5547 27.8266 42.3578C31.0234 39.1609 34.9146 37.5625 39.5 37.5625C44.0854 37.5625 47.9766 39.1609 51.1734 42.3578C54.3703 45.5547 55.9687 49.4458 55.9687 54.0312V55H61.7812V54.0312C61.7812 47.8312 59.6177 42.5677 55.2906 38.2406C50.9635 33.9135 45.7 31.75 39.5 31.75C33.3 31.75 28.0365 33.9135 23.7094 38.2406C19.3823 42.5677 17.2187 47.8312 17.2187 54.0312V55ZM20.5125 28.8438C23.1604 28.4562 25.9536 27.4229 28.8922 25.7437C31.8307 24.0646 34.1719 22.1594 35.9156 20.0281L31.4594 16.3469C30.1677 17.8969 28.3755 19.3177 26.0828 20.6094C23.7901 21.901 21.675 22.7083 19.7375 23.0312L20.5125 28.8438ZM58.4875 28.8438L59.2625 23.0312C57.325 22.7083 55.2099 21.901 52.9172 20.6094C50.6245 19.3177 48.8323 17.8969 47.5406 16.3469L43.0844 20.0281C44.8281 22.1594 47.1693 24.0646 50.1078 25.7437C53.0463 27.4229 55.8396 28.4562 58.4875 28.8438ZM39.5 78.25C34.1396 78.25 29.1021 77.2328 24.3875 75.1984C19.6729 73.1641 15.5719 70.4031 12.0844 66.9156C8.59687 63.4281 5.83594 59.3271 3.80156 54.6125C1.76719 49.8979 0.75 44.8604 0.75 39.5C0.75 34.1396 1.76719 29.1021 3.80156 24.3875C5.83594 19.6729 8.59687 15.5719 12.0844 12.0844C15.5719 8.59687 19.6729 5.83594 24.3875 3.80156C29.1021 1.76719 34.1396 0.75 39.5 0.75C44.8604 0.75 49.8979 1.76719 54.6125 3.80156C59.3271 5.83594 63.4281 8.59687 66.9156 12.0844C70.4031 15.5719 73.1641 19.6729 75.1984 24.3875C77.2328 29.1021 78.25 34.1396 78.25 39.5C78.25 44.8604 77.2328 49.8979 75.1984 54.6125C73.1641 59.3271 70.4031 63.4281 66.9156 66.9156C63.4281 70.4031 59.3271 73.1641 54.6125 75.1984C49.8979 77.2328 44.8604 78.25 39.5 78.25ZM39.5 70.5C48.1542 70.5 55.4844 67.4969 61.4906 61.4906C67.4969 55.4844 70.5 48.1542 70.5 39.5C70.5 30.8458 67.4969 23.5156 61.4906 17.5094C55.4844 11.5031 48.1542 8.5 39.5 8.5C30.8458 8.5 23.5156 11.5031 17.5094 17.5094C11.5031 23.5156 8.5 30.8458 8.5 39.5C8.5 48.1542 11.5031 55.4844 17.5094 61.4906C23.5156 67.4969 30.8458 70.5 39.5 70.5Z" fill="#350235"/>
</svg>
