<svg width="87" height="79" viewBox="0 0 87 79" fill="none" xmlns="http://www.w3.org/2000/svg">
<path d="M43.0158 70.5C43.2741 70.5 43.5325 70.4354 43.7908 70.3063C44.0491 70.1771 44.2429 70.0479 44.3721 69.9187L76.1471 38.1437C76.9221 37.3687 77.4872 36.4969 77.8424 35.5281C78.1976 34.5594 78.3752 33.5906 78.3752 32.6219C78.3752 31.5885 78.1976 30.6036 77.8424 29.6672C77.4872 28.7307 76.9221 27.9073 76.1471 27.1969L59.6783 10.7281C58.9679 9.95312 58.1445 9.38802 57.208 9.03281C56.2715 8.6776 55.2866 8.5 54.2533 8.5C53.2846 8.5 52.3158 8.6776 51.3471 9.03281C50.3783 9.38802 49.5064 9.95312 48.7314 10.7281L47.6658 11.7937L54.8346 19.0594C55.8033 19.9635 56.5137 20.9969 56.9658 22.1594C57.4179 23.3219 57.6439 24.549 57.6439 25.8406C57.6439 28.5531 56.7236 30.8297 54.883 32.6703C53.0424 34.5109 50.7658 35.4312 48.0533 35.4312C46.7616 35.4312 45.5184 35.2052 44.3236 34.7531C43.1288 34.301 42.0793 33.6229 41.1752 32.7187L33.9096 25.55L16.9564 42.5031C16.7627 42.6969 16.6174 42.9068 16.5205 43.1328C16.4236 43.3589 16.3752 43.601 16.3752 43.8594C16.3752 44.376 16.5689 44.8443 16.9564 45.2641C17.3439 45.6839 17.796 45.8937 18.3127 45.8937C18.571 45.8937 18.8293 45.8292 19.0877 45.7C19.346 45.5708 19.5398 45.4417 19.6689 45.3125L32.8439 32.1375L38.2689 37.5625L25.1908 50.7375C24.9971 50.9312 24.8517 51.1411 24.7549 51.3672C24.658 51.5932 24.6096 51.8354 24.6096 52.0938C24.6096 52.6104 24.8033 53.0625 25.1908 53.45C25.5783 53.8375 26.0304 54.0312 26.5471 54.0312C26.8054 54.0312 27.0637 53.9667 27.3221 53.8375C27.5804 53.7083 27.7741 53.5792 27.9033 53.45L41.0783 40.3719L46.5033 45.7969L33.4252 58.9719C33.2314 59.101 33.0861 59.2948 32.9892 59.5531C32.8924 59.8115 32.8439 60.0698 32.8439 60.3281C32.8439 60.8448 33.0377 61.2969 33.4252 61.6844C33.8127 62.0719 34.2648 62.2656 34.7814 62.2656C35.0398 62.2656 35.2819 62.2172 35.508 62.1203C35.734 62.0234 35.9439 61.8781 36.1377 61.6844L49.3127 48.6062L54.7377 54.0312L41.5627 67.2062C41.3689 67.4 41.2236 67.6099 41.1267 67.8359C41.0299 68.062 40.9814 68.3042 40.9814 68.5625C40.9814 69.0792 41.1913 69.5312 41.6111 69.9187C42.0309 70.3063 42.4991 70.5 43.0158 70.5ZM42.9189 78.25C40.5293 78.25 38.4142 77.4589 36.5736 75.8766C34.733 74.2943 33.6512 72.3083 33.3283 69.9187C31.1325 69.5958 29.2918 68.6917 27.8064 67.2062C26.321 65.7208 25.4168 63.8802 25.0939 61.6844C22.8981 61.3615 21.0736 60.4411 19.6205 58.9234C18.1674 57.4057 17.2793 55.5812 16.9564 53.45C14.5023 53.1271 12.5002 52.0615 10.9502 50.2531C9.40018 48.4448 8.62518 46.3135 8.62518 43.8594C8.62518 42.5677 8.86736 41.3245 9.35174 40.1297C9.83611 38.9349 10.5304 37.8854 11.4346 36.9813L33.9096 14.6031L46.6002 27.2937C46.7293 27.4875 46.9231 27.6328 47.1814 27.7297C47.4398 27.8266 47.6981 27.875 47.9564 27.875C48.5377 27.875 49.0221 27.6974 49.4096 27.3422C49.7971 26.987 49.9908 26.5187 49.9908 25.9375C49.9908 25.6792 49.9424 25.4208 49.8455 25.1625C49.7486 24.9042 49.6033 24.7104 49.4096 24.5812L35.5564 10.7281C34.846 9.95312 34.0226 9.38802 33.0861 9.03281C32.1497 8.6776 31.1648 8.5 30.1314 8.5C29.1627 8.5 28.1939 8.6776 27.2252 9.03281C26.2564 9.38802 25.3846 9.95312 24.6096 10.7281L10.9502 24.4844C10.3689 25.0656 9.88455 25.7437 9.49705 26.5187C9.10955 27.2937 8.85122 28.0687 8.72205 28.8438C8.59288 29.6187 8.59288 30.4099 8.72205 31.2172C8.85122 32.0245 9.10955 32.7833 9.49705 33.4937L3.8783 39.1125C2.78038 37.6271 1.97309 35.9964 1.45643 34.2203C0.939759 32.4443 0.746009 30.6521 0.875176 28.8438C1.00434 27.0354 1.45643 25.2755 2.23143 23.5641C3.00643 21.8526 4.07205 20.3187 5.4283 18.9625L19.0877 5.30312C20.6377 3.81771 22.3653 2.6875 24.2705 1.9125C26.1757 1.1375 28.1293 0.75 30.1314 0.75C32.1335 0.75 34.0872 1.1375 35.9924 1.9125C37.8976 2.6875 39.5929 3.81771 41.0783 5.30312L42.1439 6.36875L43.2096 5.30312C44.7596 3.81771 46.4872 2.6875 48.3924 1.9125C50.2976 1.1375 52.2512 0.75 54.2533 0.75C56.2554 0.75 58.209 1.1375 60.1142 1.9125C62.0195 2.6875 63.7148 3.81771 65.2002 5.30312L81.5721 21.675C83.0575 23.1604 84.1877 24.8719 84.9627 26.8094C85.7377 28.7469 86.1252 30.7167 86.1252 32.7187C86.1252 34.7208 85.7377 36.6745 84.9627 38.5797C84.1877 40.4849 83.0575 42.1802 81.5721 43.6656L49.7971 75.3438C48.8929 76.2479 47.8434 76.9583 46.6486 77.475C45.4538 77.9917 44.2106 78.25 42.9189 78.25Z" fill="#350235"/>
</svg>
