<svg width="212" height="33" viewBox="0 0 212 33" fill="none" xmlns="http://www.w3.org/2000/svg">
<path d="M6.968 32.528C5.88 32.528 4.856 32.352 3.896 32C2.968 31.648 2.2 30.96 1.592 29.936C0.984 28.88 0.68 27.312 0.68 25.232V9.68C0.68 8.016 1 6.72 1.64 5.792C2.312 4.864 3.24 4.224 4.424 3.872C5.608 3.488 6.984 3.296 8.552 3.296C10.12 3.296 11.496 3.488 12.68 3.872C13.896 4.224 14.84 4.864 15.512 5.792C16.216 6.72 16.568 8.016 16.568 9.68V13.664H11.144V9.392C11.144 8.624 11.032 8.048 10.808 7.664C10.616 7.248 10.344 6.976 9.992 6.848C9.64 6.72 9.208 6.656 8.696 6.656C8.216 6.656 7.784 6.72 7.4 6.848C7.048 6.976 6.76 7.248 6.536 7.664C6.344 8.048 6.248 8.624 6.248 9.392V26.576C6.248 27.312 6.344 27.888 6.536 28.304C6.76 28.688 7.048 28.96 7.4 29.12C7.784 29.248 8.216 29.312 8.696 29.312C9.432 29.312 10.024 29.088 10.472 28.64C10.92 28.192 11.144 27.504 11.144 26.576V20.912H8.84V17.744H16.568V32H12.392L12.104 29.792C12.04 29.888 11.976 29.984 11.912 30.08C11.848 30.176 11.8 30.256 11.768 30.32C11.448 30.864 10.904 31.376 10.136 31.856C9.4 32.304 8.344 32.528 6.968 32.528ZM27.149 32.384C25.485 32.384 24.077 32.208 22.925 31.856C21.805 31.472 20.957 30.736 20.381 29.648C19.805 28.528 19.517 26.848 19.517 24.608V13.904C19.517 11.568 20.141 9.968 21.389 9.104C22.637 8.24 24.525 7.808 27.053 7.808C29.549 7.808 31.421 8.24 32.669 9.104C33.917 9.968 34.541 11.568 34.541 13.904V20.384H24.989V26.864C24.989 27.824 25.133 28.496 25.421 28.88C25.741 29.264 26.301 29.456 27.101 29.456C27.837 29.456 28.333 29.28 28.589 28.928C28.877 28.544 29.021 27.856 29.021 26.864V23.072H34.541V24.56C34.541 26.8 34.253 28.48 33.677 29.6C33.101 30.72 32.253 31.472 31.133 31.856C30.045 32.208 28.717 32.384 27.149 32.384ZM24.989 17.888H29.021V13.616C29.021 12.688 28.877 12.032 28.589 11.648C28.333 11.264 27.821 11.072 27.053 11.072C26.285 11.072 25.741 11.264 25.421 11.648C25.133 12.032 24.989 12.688 24.989 13.616V17.888ZM44.6311 32.384C43.0311 32.384 41.6551 32.192 40.5031 31.808C39.3831 31.424 38.5351 30.672 37.9591 29.552C37.3831 28.4 37.0951 26.72 37.0951 24.512V14.432C37.0951 11.968 37.7191 10.256 38.9671 9.296C40.2151 8.304 42.1031 7.808 44.6311 7.808C47.1591 7.808 49.0311 8.304 50.2471 9.296C51.4951 10.256 52.1191 11.968 52.1191 14.432V24.512C52.1191 26.72 51.8311 28.384 51.2551 29.504C50.7111 30.624 49.8791 31.392 48.7591 31.808C47.6391 32.192 46.2631 32.384 44.6311 32.384ZM44.6311 29.12C45.3351 29.12 45.8471 28.928 46.1671 28.544C46.4871 28.128 46.6471 27.392 46.6471 26.336V13.856C46.6471 12.864 46.4871 12.16 46.1671 11.744C45.8791 11.296 45.3671 11.072 44.6311 11.072C43.9271 11.072 43.3991 11.28 43.0471 11.696C42.7271 12.112 42.5671 12.832 42.5671 13.856V26.336C42.5671 27.392 42.7271 28.128 43.0471 28.544C43.3991 28.928 43.9271 29.12 44.6311 29.12ZM58.6618 32L53.5258 8.24H59.1898L62.2138 25.856H62.2618L64.9978 8.24H70.1818L65.1898 32H58.6618ZM76.673 32.384C75.841 32.384 75.057 32.272 74.321 32.048C73.617 31.824 73.025 31.36 72.545 30.656C72.097 29.92 71.873 28.848 71.873 27.44V24.272C71.873 22.768 72.305 21.552 73.169 20.624C74.065 19.664 75.457 18.848 77.345 18.176C78.337 17.76 79.121 17.392 79.697 17.072C80.273 16.752 80.689 16.368 80.945 15.92C81.201 15.44 81.329 14.8 81.329 14V12.704C81.329 12.192 81.249 11.808 81.089 11.552C80.929 11.264 80.689 11.056 80.369 10.928C80.081 10.8 79.745 10.736 79.361 10.736C78.529 10.736 77.985 11.024 77.729 11.6C77.473 12.144 77.345 13.072 77.345 14.384V16.4H72.401V13.856C72.401 12.672 72.561 11.632 72.881 10.736C73.233 9.808 73.905 9.088 74.897 8.576C75.889 8.032 77.377 7.76 79.361 7.76C81.377 7.76 82.929 7.952 84.017 8.336C85.105 8.688 85.857 9.264 86.273 10.064C86.689 10.832 86.897 11.888 86.897 13.232V32H81.425V29.36C81.169 30.288 80.577 31.024 79.649 31.568C78.753 32.112 77.761 32.384 76.673 32.384ZM79.025 28.784C79.889 28.784 80.481 28.464 80.801 27.824C81.153 27.152 81.329 26.224 81.329 25.04V18.944C81.137 19.264 80.817 19.552 80.369 19.808C79.921 20.032 79.473 20.288 79.025 20.576C78.417 20.992 77.953 21.424 77.633 21.872C77.313 22.288 77.153 22.88 77.153 23.648V26.096C77.153 26.768 77.233 27.312 77.393 27.728C77.553 28.112 77.777 28.384 78.065 28.544C78.353 28.704 78.673 28.784 79.025 28.784ZM90.1666 32V8.24H94.8226L95.3026 11.024C95.5906 10.064 96.1506 9.28 96.9826 8.672C97.8466 8.064 98.7906 7.76 99.8146 7.76C101.351 7.76 102.503 8.032 103.271 8.576C104.039 9.088 104.551 9.824 104.807 10.784C105.095 11.712 105.239 12.816 105.239 14.096V32H99.7666V14.432C99.7666 14.048 99.7506 13.696 99.7186 13.376C99.6866 13.024 99.5906 12.72 99.4306 12.464C99.3026 12.208 99.1106 12.016 98.8546 11.888C98.5986 11.728 98.2146 11.648 97.7026 11.648C97.3186 11.648 96.9826 11.728 96.6946 11.888C96.4066 12.016 96.1826 12.176 96.0226 12.368C95.8626 12.56 95.7346 12.736 95.6386 12.896V32H90.1666ZM112.72 32.384C111.888 32.384 111.104 32.272 110.368 32.048C109.664 31.824 109.072 31.36 108.592 30.656C108.144 29.92 107.92 28.848 107.92 27.44V24.272C107.92 22.768 108.352 21.552 109.216 20.624C110.112 19.664 111.504 18.848 113.392 18.176C114.384 17.76 115.168 17.392 115.744 17.072C116.32 16.752 116.736 16.368 116.992 15.92C117.248 15.44 117.376 14.8 117.376 14V12.704C117.376 12.192 117.296 11.808 117.136 11.552C116.976 11.264 116.736 11.056 116.416 10.928C116.128 10.8 115.792 10.736 115.408 10.736C114.576 10.736 114.032 11.024 113.776 11.6C113.52 12.144 113.392 13.072 113.392 14.384V16.4H108.448V13.856C108.448 12.672 108.608 11.632 108.928 10.736C109.28 9.808 109.952 9.088 110.944 8.576C111.936 8.032 113.424 7.76 115.408 7.76C117.424 7.76 118.976 7.952 120.064 8.336C121.152 8.688 121.904 9.264 122.32 10.064C122.736 10.832 122.944 11.888 122.944 13.232V32H117.472V29.36C117.216 30.288 116.624 31.024 115.696 31.568C114.8 32.112 113.808 32.384 112.72 32.384ZM115.072 28.784C115.936 28.784 116.528 28.464 116.848 27.824C117.2 27.152 117.376 26.224 117.376 25.04V18.944C117.184 19.264 116.864 19.552 116.416 19.808C115.968 20.032 115.52 20.288 115.072 20.576C114.464 20.992 114 21.424 113.68 21.872C113.36 22.288 113.2 22.88 113.2 23.648V26.096C113.2 26.768 113.28 27.312 113.44 27.728C113.6 28.112 113.824 28.384 114.112 28.544C114.4 28.704 114.72 28.784 115.072 28.784ZM134.422 32V3.632H144.502C146.39 3.632 147.814 4.064 148.774 4.928C149.766 5.76 150.262 6.928 150.262 8.432V13.328C150.262 14.608 150.102 15.808 149.782 16.928C149.462 18.016 148.886 18.896 148.054 19.568C147.222 20.24 146.022 20.576 144.454 20.576H140.23V32H134.422ZM140.23 17.504H142.39C143.158 17.504 143.734 17.136 144.118 16.4C144.502 15.664 144.694 14.448 144.694 12.752V10.832C144.694 9.328 144.534 8.256 144.214 7.616C143.894 6.976 143.43 6.656 142.822 6.656H140.23V17.504ZM157.157 32.384C156.325 32.384 155.541 32.272 154.805 32.048C154.101 31.824 153.509 31.36 153.029 30.656C152.581 29.92 152.357 28.848 152.357 27.44V24.272C152.357 22.768 152.789 21.552 153.653 20.624C154.549 19.664 155.941 18.848 157.829 18.176C158.821 17.76 159.605 17.392 160.181 17.072C160.757 16.752 161.173 16.368 161.429 15.92C161.685 15.44 161.813 14.8 161.813 14V12.704C161.813 12.192 161.733 11.808 161.573 11.552C161.413 11.264 161.173 11.056 160.853 10.928C160.565 10.8 160.229 10.736 159.845 10.736C159.013 10.736 158.469 11.024 158.213 11.6C157.957 12.144 157.829 13.072 157.829 14.384V16.4H152.885V13.856C152.885 12.672 153.045 11.632 153.365 10.736C153.717 9.808 154.389 9.088 155.381 8.576C156.373 8.032 157.861 7.76 159.845 7.76C161.861 7.76 163.413 7.952 164.501 8.336C165.589 8.688 166.341 9.264 166.757 10.064C167.173 10.832 167.381 11.888 167.381 13.232V32H161.909V29.36C161.653 30.288 161.061 31.024 160.133 31.568C159.237 32.112 158.245 32.384 157.157 32.384ZM159.509 28.784C160.373 28.784 160.965 28.464 161.285 27.824C161.637 27.152 161.813 26.224 161.813 25.04V18.944C161.621 19.264 161.301 19.552 160.853 19.808C160.405 20.032 159.957 20.288 159.509 20.576C158.901 20.992 158.437 21.424 158.117 21.872C157.797 22.288 157.637 22.88 157.637 23.648V26.096C157.637 26.768 157.717 27.312 157.877 27.728C158.037 28.112 158.261 28.384 158.549 28.544C158.837 28.704 159.157 28.784 159.509 28.784ZM170.651 32V8.24H176.123V32H170.651ZM173.387 5.6C172.683 5.6 172.075 5.36 171.563 4.88C171.051 4.368 170.795 3.776 170.795 3.104C170.795 2.4 171.051 1.808 171.563 1.328C172.075 0.847998 172.683 0.607998 173.387 0.607998C174.091 0.607998 174.699 0.847998 175.211 1.328C175.755 1.808 176.027 2.4 176.027 3.104C176.027 3.776 175.755 4.368 175.211 4.88C174.699 5.36 174.091 5.6 173.387 5.6ZM183.537 32L178.401 8.24H184.065L187.089 25.856H187.137L189.873 8.24H195.057L190.065 32H183.537ZM201.548 32.384C200.716 32.384 199.932 32.272 199.196 32.048C198.492 31.824 197.9 31.36 197.42 30.656C196.972 29.92 196.748 28.848 196.748 27.44V24.272C196.748 22.768 197.18 21.552 198.044 20.624C198.94 19.664 200.332 18.848 202.22 18.176C203.212 17.76 203.996 17.392 204.572 17.072C205.148 16.752 205.564 16.368 205.82 15.92C206.076 15.44 206.204 14.8 206.204 14V12.704C206.204 12.192 206.124 11.808 205.964 11.552C205.804 11.264 205.564 11.056 205.244 10.928C204.956 10.8 204.62 10.736 204.236 10.736C203.404 10.736 202.86 11.024 202.604 11.6C202.348 12.144 202.22 13.072 202.22 14.384V16.4H197.276V13.856C197.276 12.672 197.436 11.632 197.756 10.736C198.108 9.808 198.78 9.088 199.772 8.576C200.764 8.032 202.252 7.76 204.236 7.76C206.252 7.76 207.804 7.952 208.892 8.336C209.98 8.688 210.732 9.264 211.148 10.064C211.564 10.832 211.772 11.888 211.772 13.232V32H206.3V29.36C206.044 30.288 205.452 31.024 204.524 31.568C203.628 32.112 202.636 32.384 201.548 32.384ZM203.9 28.784C204.764 28.784 205.356 28.464 205.676 27.824C206.028 27.152 206.204 26.224 206.204 25.04V18.944C206.012 19.264 205.692 19.552 205.244 19.808C204.796 20.032 204.348 20.288 203.9 20.576C203.292 20.992 202.828 21.424 202.508 21.872C202.188 22.288 202.028 22.88 202.028 23.648V26.096C202.028 26.768 202.108 27.312 202.268 27.728C202.428 28.112 202.652 28.384 202.94 28.544C203.228 28.704 203.548 28.784 203.9 28.784Z" fill="white"/>
</svg>
