<svg width="93" height="93" viewBox="0 0 93 93" fill="none" xmlns="http://www.w3.org/2000/svg">
<g clip-path="url(#clip0_155_80)">
<path d="M46.5 0C20.8596 0 0 20.86 0 46.5C0 72.14 20.8596 93 46.5 93C72.1404 93 93 72.14 93 46.5C93 20.86 72.1404 0 46.5 0ZM46.5 86.1952C24.6121 86.1952 6.8048 68.3879 6.8048 46.5C6.8048 24.6121 24.6121 6.8048 46.5 6.8048C68.3879 6.8048 86.1952 24.6121 86.1952 46.5C86.1952 68.3879 68.3879 86.1952 46.5 86.1952Z" fill="#350235"/>
<path d="M31.3316 21.7212C26.4559 27.9575 20.1762 33.1838 13.1714 36.8348L16.3167 42.8694C24.1768 38.7727 31.2228 32.909 36.6928 25.9124L31.3316 21.7212Z" fill="#350235"/>
<path d="M61.6687 21.7212L56.3076 25.9124C61.7774 32.909 68.8234 38.7725 76.6835 42.8694L79.8288 36.8348C72.8238 33.1838 66.5443 27.9575 61.6687 21.7212Z" fill="#350235"/>
<path d="M37.3991 40.8205C35.0614 38.7747 32.7604 37.0458 32.6635 36.9731L28.5801 42.4167C31.5573 44.6513 34.5546 47.2909 35.8479 48.7682C34.5544 50.2454 31.5572 52.885 28.5804 55.1194L32.6634 60.5634C32.7602 60.4907 35.0612 58.7618 37.3989 56.716C42.1441 52.5637 43.0975 50.5966 43.0975 48.7682C43.0977 46.9398 42.1445 44.9728 37.3991 40.8205Z" fill="#350235"/>
<path d="M57.152 48.7683C58.4455 47.2911 61.4425 44.6515 64.4194 42.4171L60.3365 36.9731C60.2397 37.0458 57.9387 38.7747 55.601 40.8205C50.8558 44.9728 49.9023 46.9399 49.9023 48.7683C49.9023 50.5967 50.8558 52.5639 55.601 56.7162C57.9387 58.762 60.2397 60.4909 60.3365 60.5635L64.42 55.12C61.4425 52.8852 58.4455 50.2456 57.152 48.7683Z" fill="#350235"/>
<path d="M46.5001 61.2439C43.3466 61.2439 40.4113 62.143 38.0113 63.8441C35.2733 65.7849 33.2291 68.7119 31.9351 72.5436L38.3824 74.7207C39.8984 70.2311 42.5538 68.0487 46.5001 68.0487C50.459 68.0487 53.1852 70.2785 54.6031 74.6764L61.0797 72.5881C58.7552 65.3784 53.4413 61.2439 46.5001 61.2439Z" fill="#350235"/>
</g>
<defs>
<clipPath id="clip0_155_80">
<rect width="93" height="93" fill="white"/>
</clipPath>
</defs>
</svg>
