<svg width="87" height="71" viewBox="0 0 87 71" fill="none" xmlns="http://www.w3.org/2000/svg">
<path d="M39.625 70.375L27.3219 59.3312C22.6719 55.1333 18.6839 51.3875 15.3578 48.0938C12.0318 44.8 9.28698 41.7 7.12344 38.7937C4.9599 35.8875 3.3776 33.0781 2.37656 30.3656C1.37552 27.6531 0.875 24.8115 0.875 21.8406C0.875 15.7698 2.90937 10.7161 6.97812 6.67969C11.0469 2.64323 16.1167 0.625 22.1875 0.625C25.5458 0.625 28.7427 1.33542 31.7781 2.75625C34.8135 4.17708 37.4292 6.17917 39.625 8.7625C41.8208 6.17917 44.4365 4.17708 47.4719 2.75625C50.5073 1.33542 53.7042 0.625 57.0625 0.625C62.2937 0.625 66.6854 2.09427 70.2375 5.03281C73.7896 7.97135 76.2115 11.6687 77.5031 16.125H69.2687C68.1062 13.5417 66.3948 11.6042 64.1344 10.3125C61.874 9.02083 59.5167 8.375 57.0625 8.375C53.7687 8.375 50.9271 9.26302 48.5375 11.0391C46.1479 12.8151 43.9198 15.1562 41.8531 18.0625H37.3969C35.3948 15.1562 33.1182 12.8151 30.5672 11.0391C28.0161 9.26302 25.2229 8.375 22.1875 8.375C18.5063 8.375 15.3255 9.65052 12.6453 12.2016C9.9651 14.7526 8.625 17.9656 8.625 21.8406C8.625 23.9719 9.07708 26.1354 9.98125 28.3312C10.8854 30.5271 12.5 33.062 14.825 35.9359C17.15 38.8099 20.3146 42.1682 24.3187 46.0109C28.3229 49.8536 33.425 54.4875 39.625 59.9125C41.3042 58.4271 43.274 56.7156 45.5344 54.7781C47.7948 52.8406 49.6031 51.226 50.9594 49.9344L51.8312 50.8062L53.7203 52.6953L55.6094 54.5844L56.4812 55.4562C55.0604 56.7479 53.2521 58.3464 51.0562 60.2516C48.8604 62.1568 46.9229 63.8521 45.2437 65.3375L39.625 70.375ZM66.75 54.875V43.25H55.125V35.5H66.75V23.875H74.5V35.5H86.125V43.25H74.5V54.875H66.75Z" fill="#350235"/>
</svg>
