<svg width="75" height="79" viewBox="0 0 75 79" fill="none" xmlns="http://www.w3.org/2000/svg">
<path d="M12.25 78.25V61.5875C8.56875 58.2292 5.71094 54.3057 3.67656 49.8172C1.64219 45.3286 0.625 40.5979 0.625 35.625C0.625 25.9375 4.01562 17.7031 10.7969 10.9219C17.5781 4.14062 25.8125 0.75 35.5 0.75C43.5729 0.75 50.7255 3.12344 56.9578 7.87031C63.1901 12.6172 67.2427 18.801 69.1156 26.4219L74.1531 46.2812C74.476 47.5083 74.25 48.6224 73.475 49.6234C72.7 50.6245 71.6667 51.125 70.375 51.125H62.625V62.75C62.625 64.8812 61.8661 66.7057 60.3484 68.2234C58.8307 69.7411 57.0062 70.5 54.875 70.5H47.125V78.25H39.375V62.75H54.875V43.375H65.3375L61.6562 28.3594C60.1708 22.4823 57.0062 17.7031 52.1625 14.0219C47.3187 10.3406 41.7646 8.5 35.5 8.5C28.0083 8.5 21.6146 11.1156 16.3187 16.3469C11.0229 21.5781 8.375 27.9396 8.375 35.4312C8.375 39.3062 9.16615 42.9875 10.7484 46.475C12.3307 49.9625 14.575 53.0625 17.4812 55.775L20 58.1V78.25H12.25ZM35.5 55C36.5979 55 37.5182 54.6286 38.2609 53.8859C39.0036 53.1432 39.375 52.2229 39.375 51.125C39.375 50.0271 39.0036 49.1068 38.2609 48.3641C37.5182 47.6214 36.5979 47.25 35.5 47.25C34.4021 47.25 33.4818 47.6214 32.7391 48.3641C31.9964 49.1068 31.625 50.0271 31.625 51.125C31.625 52.2229 31.9964 53.1432 32.7391 53.8859C33.4818 54.6286 34.4021 55 35.5 55ZM32.5937 42.6H38.5031C38.5031 40.9854 38.713 39.6776 39.1328 38.6766C39.5526 37.6755 40.4083 36.4646 41.7 35.0438C42.8625 33.7521 43.9927 32.4443 45.0906 31.1203C46.1885 29.7964 46.7375 28.0687 46.7375 25.9375C46.7375 23.225 45.688 20.9323 43.5891 19.0594C41.4901 17.1865 38.8906 16.25 35.7906 16.25C33.2073 16.25 30.8661 16.9927 28.7672 18.4781C26.6682 19.9635 25.199 21.901 24.3594 24.2906L29.6875 26.5187C30.1396 25.0979 30.9307 23.9516 32.0609 23.0797C33.1911 22.2078 34.4344 21.7719 35.7906 21.7719C37.2115 21.7719 38.3901 22.1594 39.3266 22.9344C40.263 23.7094 40.7312 24.7104 40.7312 25.9375C40.7312 27.2937 40.3276 28.5047 39.5203 29.5703C38.713 30.6359 37.7604 31.7177 36.6625 32.8156C35.3708 34.1719 34.3698 35.5281 33.6594 36.8844C32.949 38.2406 32.5937 40.1458 32.5937 42.6Z" fill="#350235"/>
</svg>
