<svg width="71" height="71" viewBox="0 0 71 71" fill="none" xmlns="http://www.w3.org/2000/svg">
<path d="M26.7812 70.375C23.4875 70.375 20.6458 69.2286 18.2563 66.9359C15.8667 64.6432 14.5104 61.8823 14.1875 58.6531C10.3125 58.1365 7.08333 56.425 4.5 53.5187C1.91667 50.6125 0.625 47.1896 0.625 43.25C0.625 41.8937 0.802604 40.5536 1.15781 39.2297C1.51302 37.9057 2.04583 36.6625 2.75625 35.5C2.04583 34.3375 1.51302 33.1104 1.15781 31.8187C0.802604 30.5271 0.625 29.1708 0.625 27.75C0.625 23.8104 1.91667 20.4036 4.5 17.5297C7.08333 14.6557 10.2802 12.9604 14.0906 12.4437C14.2844 9.15 15.6083 6.35677 18.0625 4.06406C20.5167 1.77135 23.4229 0.625 26.7812 0.625C28.4604 0.625 30.0266 0.947917 31.4797 1.59375C32.9328 2.23958 34.2729 3.11146 35.5 4.20937C36.6625 3.11146 37.9865 2.23958 39.4719 1.59375C40.9573 0.947917 42.5396 0.625 44.2188 0.625C47.5771 0.625 50.4672 1.75521 52.8891 4.01562C55.3109 6.27604 56.6187 9.05312 56.8125 12.3469C60.6229 12.8635 63.8359 14.575 66.4516 17.4812C69.0672 20.3875 70.375 23.8104 70.375 27.75C70.375 29.1708 70.1974 30.5271 69.8422 31.8187C69.487 33.1104 68.9542 34.3375 68.2438 35.5C68.9542 36.6625 69.487 37.9057 69.8422 39.2297C70.1974 40.5536 70.375 41.8937 70.375 43.25C70.375 47.2542 69.0672 50.6932 66.4516 53.5672C63.8359 56.4411 60.5906 58.1365 56.7156 58.6531C56.3927 61.8823 55.0526 64.6432 52.6953 66.9359C50.338 69.2286 47.5125 70.375 44.2188 70.375C42.6042 70.375 41.038 70.0682 39.5203 69.4547C38.0026 68.8411 36.6625 67.9854 35.5 66.8875C34.2729 67.9854 32.9167 68.8411 31.4312 69.4547C29.9458 70.0682 28.3958 70.375 26.7812 70.375ZM39.375 13.2188V57.7812C39.375 59.1375 39.8432 60.2839 40.7797 61.2203C41.7161 62.1568 42.8625 62.625 44.2188 62.625C45.5104 62.625 46.6245 62.1083 47.5609 61.075C48.4974 60.0417 48.9979 58.8792 49.0625 57.5875C47.7062 57.0708 46.463 56.3766 45.3328 55.5047C44.2026 54.6328 43.1854 53.5833 42.2812 52.3562C41.6354 51.4521 41.3932 50.4833 41.5547 49.45C41.7161 48.4167 42.249 47.5771 43.1531 46.9312C44.0573 46.2854 45.026 46.0432 46.0594 46.2047C47.0927 46.3661 47.9323 46.899 48.5781 47.8031C49.2885 48.8365 50.1927 49.6276 51.2906 50.1766C52.3885 50.7255 53.5833 51 54.875 51C57.0062 51 58.8307 50.2411 60.3484 48.7234C61.8661 47.2057 62.625 45.3812 62.625 43.25C62.625 42.9271 62.6089 42.6042 62.5766 42.2812C62.5443 41.9583 62.4635 41.6354 62.3344 41.3125C61.2365 41.9583 60.0578 42.4427 58.7984 42.7656C57.5391 43.0885 56.2312 43.25 54.875 43.25C53.7771 43.25 52.8568 42.8786 52.1141 42.1359C51.3714 41.3932 51 40.4729 51 39.375C51 38.2771 51.3714 37.3568 52.1141 36.6141C52.8568 35.8714 53.7771 35.5 54.875 35.5C57.0062 35.5 58.8307 34.7411 60.3484 33.2234C61.8661 31.7057 62.625 29.8812 62.625 27.75C62.625 25.6187 61.8661 23.8104 60.3484 22.325C58.8307 20.8396 57.0062 20.0646 54.875 20C54.1646 21.1625 53.2443 22.1797 52.1141 23.0516C50.9839 23.9234 49.7406 24.6177 48.3844 25.1344C47.351 25.5219 46.35 25.4896 45.3812 25.0375C44.4125 24.5854 43.7667 23.8427 43.4437 22.8094C43.1208 21.776 43.1693 20.775 43.5891 19.8062C44.0089 18.8375 44.7354 18.1917 45.7687 17.8687C46.7375 17.5458 47.5286 16.9646 48.1422 16.125C48.7557 15.2854 49.0625 14.3167 49.0625 13.2188C49.0625 11.8625 48.5943 10.7161 47.6578 9.77969C46.7214 8.84323 45.575 8.375 44.2188 8.375C42.8625 8.375 41.7161 8.84323 40.7797 9.77969C39.8432 10.7161 39.375 11.8625 39.375 13.2188ZM31.625 57.7812V13.2188C31.625 11.8625 31.1568 10.7161 30.2203 9.77969C29.2839 8.84323 28.1375 8.375 26.7812 8.375C25.425 8.375 24.2786 8.84323 23.3422 9.77969C22.4057 10.7161 21.9375 11.8625 21.9375 13.2188C21.9375 14.2521 22.2281 15.2047 22.8094 16.0766C23.3906 16.9484 24.1656 17.5458 25.1344 17.8687C26.1677 18.1917 26.9104 18.8375 27.3625 19.8062C27.8146 20.775 27.8792 21.776 27.5562 22.8094C27.1687 23.8427 26.4906 24.5854 25.5219 25.0375C24.5531 25.4896 23.5521 25.5219 22.5187 25.1344C21.1625 24.6177 19.9193 23.9234 18.7891 23.0516C17.6589 22.1797 16.7385 21.1625 16.0281 20C13.9615 20.0646 12.1693 20.8557 10.6516 22.3734C9.13385 23.8911 8.375 25.6833 8.375 27.75C8.375 29.8812 9.13385 31.7057 10.6516 33.2234C12.1693 34.7411 13.9937 35.5 16.125 35.5C17.2229 35.5 18.1432 35.8714 18.8859 36.6141C19.6286 37.3568 20 38.2771 20 39.375C20 40.4729 19.6286 41.3932 18.8859 42.1359C18.1432 42.8786 17.2229 43.25 16.125 43.25C14.7687 43.25 13.4609 43.0885 12.2016 42.7656C10.9422 42.4427 9.76354 41.9583 8.66562 41.3125C8.53646 41.6354 8.45573 41.9583 8.42344 42.2812C8.39115 42.6042 8.375 42.9271 8.375 43.25C8.375 45.3812 9.13385 47.2057 10.6516 48.7234C12.1693 50.2411 13.9937 51 16.125 51C17.4167 51 18.6115 50.7255 19.7094 50.1766C20.8073 49.6276 21.7115 48.8365 22.4219 47.8031C23.0677 46.899 23.9073 46.3661 24.9406 46.2047C25.974 46.0432 26.9427 46.2854 27.8469 46.9312C28.751 47.5771 29.2839 48.4167 29.4453 49.45C29.6068 50.4833 29.3646 51.4521 28.7188 52.3562C27.8146 53.5833 26.7812 54.649 25.6187 55.5531C24.4562 56.4573 23.1969 57.1677 21.8406 57.6844C21.9052 58.976 22.4219 60.1224 23.3906 61.1234C24.3594 62.1245 25.4896 62.625 26.7812 62.625C28.1375 62.625 29.2839 62.1568 30.2203 61.2203C31.1568 60.2839 31.625 59.1375 31.625 57.7812Z" fill="#350235"/>
</svg>
